<svg xmlns="http://www.w3.org/2000/svg" viewBox="0 0 128 128" role="img" aria-label="AutomaticIdle icon">
  <defs>
    <linearGradient id="bg" x1="0" y1="0" x2="1" y2="1">
      <stop offset="0%" stop-color="#111827" />
      <stop offset="100%" stop-color="#1e293b" />
    </linearGradient>
    <linearGradient id="gear" x1="0" y1="0" x2="1" y2="1">
      <stop offset="0%" stop-color="#818cf8" />
      <stop offset="100%" stop-color="#22d3ee" />
    </linearGradient>
  </defs>
  <rect width="128" height="128" rx="28" fill="url(#bg)" />
  <circle cx="64" cy="64" r="42" fill="#0f172a" stroke="#334155" stroke-width="4" />
  <g fill="url(#gear)">
    <rect x="58" y="14" width="12" height="20" rx="4" />
    <rect x="58" y="94" width="12" height="20" rx="4" />
    <rect x="94" y="58" width="20" height="12" rx="4" />
    <rect x="14" y="58" width="20" height="12" rx="4" />
    <rect x="84.5" y="23.2" width="12" height="20" rx="4" transform="rotate(45 90.5 33.2)" />
    <rect x="31.5" y="84.8" width="12" height="20" rx="4" transform="rotate(45 37.5 94.8)" />
    <rect x="84.8" y="84.5" width="20" height="12" rx="4" transform="rotate(45 94.8 90.5)" />
    <rect x="23.2" y="31.5" width="20" height="12" rx="4" transform="rotate(45 33.2 37.5)" />
    <circle cx="64" cy="64" r="26" />
  </g>
  <circle cx="64" cy="64" r="11" fill="#0f172a" />
  <path d="M68 38h10L58 90H48z" fill="#fbbf24" />
  <path d="M54 38h10L44 90H34z" fill="#f59e0b" opacity="0.92" />
</svg>